<svg width="39" height="42" viewBox="0 0 39 42" fill="none" xmlns="http://www.w3.org/2000/svg">
<g opacity="0.8">
<path d="M33.1895 8.81055C30.1798 5.80082 26.3568 3.9004 22.2164 3.31232L23.4281 2.10047C23.9087 1.61993 23.9087 0.840882 23.4281 0.360343C22.9477 -0.120114 22.1685 -0.120114 21.688 0.360343L18.5719 3.47647C18.0913 3.95692 18.0913 4.73606 18.5719 5.21659L21.6879 8.33264C21.9282 8.57291 22.2431 8.69308 22.5579 8.69308C22.8728 8.69308 23.1878 8.57291 23.428 8.33264C23.9085 7.85218 23.9085 7.07304 23.428 6.59251L22.7338 5.89836C30.527 7.43562 36.4229 14.3208 36.4229 22.558C36.423 31.9214 28.8053 39.5391 19.442 39.5391C10.0787 39.5391 2.46094 31.9214 2.46094 22.5581C2.46094 18.9852 3.55745 15.5675 5.63202 12.6744C7.66353 9.84127 10.4641 7.72724 13.7311 6.56092C14.3711 6.33238 14.7047 5.62839 14.4762 4.9883C14.2478 4.34829 13.5436 4.01475 12.9036 4.24321C9.16273 5.57876 5.9567 7.99836 3.63202 11.2403C1.2559 14.5541 0 18.4677 0 22.5582C0 27.7513 2.02232 32.6336 5.69445 36.3057C9.36658 39.9776 14.2488 42 19.442 42C24.6351 42 29.5174 39.9777 33.1895 36.3056C36.8617 32.6335 38.884 27.7512 38.884 22.5581C38.884 17.3649 36.8616 12.4826 33.1895 8.81055Z" fill="#0FA9FF"/>
<path d="M6.79968 22.5581C6.79968 29.5291 12.471 35.2004 19.442 35.2004C26.413 35.2004 32.0843 29.5291 32.0843 22.5581C32.0843 15.5872 26.413 9.91571 19.442 9.91571C12.4709 9.91571 6.79968 15.5871 6.79968 22.5581ZM19.442 12.3766C25.0561 12.3766 29.6233 16.9441 29.6233 22.558C29.6233 28.172 25.056 32.7394 19.442 32.7394C13.828 32.7394 9.26062 28.1721 9.26062 22.5581C9.26062 16.9442 13.828 12.3766 19.442 12.3766Z" fill="#0FA9FF"/>
<path d="M20.9442 21.3371C19.9708 20.993 18.8956 20.5784 18.3015 20.1124C18.1528 19.9958 18.0894 19.7004 18.1471 19.3938C18.1774 19.2331 18.3182 18.6959 18.8593 18.533C19.8115 18.2461 20.4602 18.6234 20.6949 18.7987C21.2395 19.2057 22.0104 19.0943 22.4172 18.55C22.8241 18.0056 22.7127 17.2346 22.1685 16.8277C21.9429 16.6591 21.3928 16.2984 20.6054 16.1026V15.7724C20.6054 15.0929 20.0545 14.5419 19.375 14.5419C18.6954 14.5419 18.1445 15.0929 18.1445 15.7724V16.1784C16.9043 16.5541 15.9788 17.6109 15.7288 18.9381C15.4975 20.1655 15.9014 21.3574 16.7829 22.0488C17.6546 22.7325 18.9038 23.2259 20.1239 23.6572C21.0864 23.9974 21.1148 24.7345 21.046 25.1435C20.9313 25.8262 20.3568 26.5642 19.3668 26.5708C18.333 26.5775 18.0389 26.531 17.2587 26.0205C16.6898 25.6483 15.9274 25.8078 15.5553 26.3766C15.1833 26.9453 15.3426 27.7079 15.9114 28.08C16.7601 28.6352 17.3961 28.8773 18.1445 28.9743V29.3434C18.1445 30.023 18.6954 30.5739 19.375 30.5739C20.0545 30.5739 20.6054 30.023 20.6054 29.3434V28.8484C21.1852 28.6721 21.7151 28.3708 22.1718 27.9513C22.8565 27.3222 23.3185 26.4699 23.4729 25.5514C23.7881 23.6768 22.7719 21.9832 20.9442 21.3371Z" fill="#0FA9FF"/>
</g>
</svg>
