<svg width="42" height="42" viewBox="0 0 42 42" fill="none" xmlns="http://www.w3.org/2000/svg">
<g opacity="0.8">
<path d="M9.25368 1.3459e-05C9.58796 1.34882e-05 9.92108 0.135447 10.1639 0.40213L15.2399 5.97763L22.3087 0.754702C22.8011 0.390811 23.4863 0.444295 23.916 0.880373L31.4838 8.55464L31.4838 3.59897C31.4838 2.91943 32.0347 2.3685 32.7143 2.3685C33.3938 2.3685 33.9448 2.91943 33.9448 3.59897L33.9448 11.5547C33.9448 12.2342 33.3938 12.7852 32.7143 12.7852L25.2585 12.7852C24.5789 12.7852 24.028 12.2342 24.028 11.5547C24.028 10.8751 24.5789 10.3242 25.2585 10.3242L29.7728 10.3242L22.913 3.36797L15.809 8.6169C15.3014 8.99187 14.5927 8.92231 14.1678 8.45563L8.34403 2.05883C7.88655 1.55631 7.92305 0.778079 8.42557 0.320591C8.66149 0.105915 8.95804 1.34331e-05 9.25368 1.3459e-05Z" fill="#0FA9FF"/>
<path d="M35.726 31.909C36.8886 30.699 37.6056 29.0579 37.6056 27.2514C37.6056 23.5412 34.5872 20.5228 30.877 20.5228C29.8024 20.5228 28.7452 20.7833 27.7986 21.2695C26.517 18.7553 23.9024 17.0292 20.8922 17.0292C17.9158 17.0292 15.3265 18.7168 14.0298 21.1853C13.1278 20.7538 12.1333 20.5228 11.1232 20.5228C7.413 20.5228 4.39458 23.5412 4.39458 27.2514C4.39458 29.0579 5.11153 30.6991 6.27416 31.909C2.64567 33.0222 0 36.404 0 40.3922V40.6258C0 41.3053 0.550922 41.8563 1.23047 41.8563H40.7695C41.4491 41.8563 42 41.3053 42 40.6258V40.3922C42 36.404 39.3543 33.0222 35.726 31.909ZM30.8769 22.9837C33.2301 22.9837 35.1446 24.8981 35.1446 27.2513C35.1446 29.6046 33.2301 31.519 30.8769 31.519C30.8659 31.519 30.8553 31.5204 30.8444 31.5207H29.9353C28.9017 30.8399 27.7184 30.3689 26.4459 30.1698C27.802 28.774 28.6386 26.8708 28.6386 24.7755C28.6386 24.3994 28.6111 24.0296 28.559 23.6677C29.2475 23.2194 30.0399 22.9837 30.8769 22.9837ZM20.8921 19.49C23.8065 19.49 26.1776 21.8611 26.1776 24.7756C26.1776 27.69 23.8066 30.0611 20.8921 30.0611C17.9776 30.0611 15.6066 27.69 15.6066 24.7756C15.6066 21.8611 17.9777 19.49 20.8921 19.49ZM11.1231 22.9837C11.8812 22.9837 12.6027 23.1769 13.2436 23.5463C13.1795 23.9468 13.1457 24.3573 13.1457 24.7756C13.1457 26.8841 13.9928 28.7981 15.3641 30.1963C14.1519 30.4086 13.0239 30.8683 12.0334 31.5207H11.1556C11.1447 31.5205 11.134 31.5191 11.1231 31.5191C8.76988 31.5191 6.85543 29.6046 6.85543 27.2514C6.85535 24.8981 8.76988 22.9837 11.1231 22.9837ZM8.8716 33.9816H9.5436C8.58826 35.3965 8.02996 37.1003 8.02996 38.9322V39.3953H2.53837C3.0185 36.3321 5.67566 33.9816 8.8716 33.9816ZM10.4909 38.9322C10.4909 36.8605 11.4799 35.0163 13.0096 33.8441C13.1219 33.786 13.2245 33.712 13.3133 33.6236C14.3373 32.9297 15.5717 32.5239 16.8992 32.5239H19.7538V39.3953H10.4908V38.9322H10.4909ZM31.4778 39.3953H22.2148V32.5239H25.0694C28.603 32.5239 31.4778 35.3987 31.4778 38.9323V39.3953ZM33.9387 39.3953V38.9322C33.9387 37.1003 33.3804 35.3964 32.4251 33.9816H33.1284C36.3243 33.9816 38.9815 36.3321 39.4616 39.3953H33.9387Z" fill="#0FA9FF"/>
</g>
</svg>
