<svg width="206" height="53" viewBox="0 0 206 53" fill="none" xmlns="http://www.w3.org/2000/svg">
<path d="M26.7404 49.8355V52.5261H24.9485V44.5961H27.9809C28.3944 44.5961 28.8079 44.5961 29.2215 44.7377C29.635 44.8793 29.9106 45.0209 30.1863 45.3041C30.462 45.5873 30.5998 45.8705 30.7377 46.1537C30.8755 46.437 31.0133 46.8618 31.0133 47.2866C31.0133 47.7114 30.8755 47.9946 30.7377 48.2778C30.5998 48.5611 30.462 48.8443 30.1863 49.1275C29.9106 49.4107 29.635 49.5523 29.2215 49.6939C28.8079 49.8355 28.3944 49.8355 27.9809 49.8355H26.7404ZM26.7404 48.2778H27.9809C28.1188 48.2778 28.3944 48.2778 28.5323 48.1362C28.6701 48.1362 28.8079 47.9946 28.9458 47.853C29.0836 47.7114 29.0836 47.7114 29.0836 47.5698C29.0836 47.4282 29.0836 47.2866 29.0836 47.145C29.0836 47.0034 29.0836 46.8618 29.0836 46.7202C29.0836 46.5786 28.9458 46.437 28.9458 46.2954C28.9458 46.1537 28.8079 46.1537 28.5323 46.0121C28.3944 46.0121 28.2566 45.8705 27.9809 45.8705H26.7404V48.2778Z" fill="white"/>
<path d="M35.2863 48.2781C35.1484 48.2781 35.0106 48.2781 35.0106 48.2781H34.8728H34.7349C34.4592 48.2781 34.1836 48.2781 34.0457 48.4197C33.9079 48.5613 33.7701 48.7029 33.6322 48.8445V52.5263H31.8403V46.5788H33.4944V47.2869C33.6322 47.0037 33.7701 46.8621 34.0457 46.5788C34.3214 46.4372 34.4592 46.2956 34.7349 46.2956C34.8728 46.2956 34.8728 46.2956 35.0106 46.2956C35.1484 46.2956 35.1484 46.2956 35.2863 46.2956V48.2781Z" fill="white"/>
<path d="M38.5945 52.5261C38.181 52.5261 37.7675 52.3845 37.354 52.2429C36.9405 52.1013 36.6648 51.8181 36.3891 51.6765C36.1135 51.3932 35.9756 51.11 35.8378 50.8268C35.6999 50.5436 35.7 50.1188 35.7 49.694V49.5524C35.7 49.1275 35.6999 48.7027 35.8378 48.4195C35.9756 47.9947 36.1135 47.7115 36.3891 47.4283C36.6648 47.145 36.9405 47.0034 37.2162 46.7202C37.4918 46.437 37.9054 46.437 38.4567 46.437C38.8702 46.437 39.2837 46.437 39.5594 46.5786C39.8351 46.7202 40.1108 46.8618 40.3864 47.145C40.6621 47.4283 40.7999 47.7115 40.9378 47.9947C41.0756 48.2779 41.0756 48.7027 41.0756 49.1275V49.8356H37.4918C37.4918 50.1188 37.6297 50.402 37.9054 50.5436C38.181 50.6852 38.4567 50.8268 38.7324 50.8268C39.0081 50.8268 39.1459 50.8268 39.4216 50.6852C39.6972 50.5436 39.8351 50.402 39.9729 50.2604L40.7999 51.2516C40.6621 51.3932 40.5243 51.5349 40.3864 51.6765C40.2486 51.8181 40.1108 51.9597 39.8351 51.9597C39.6972 52.1013 39.4216 52.1013 39.1459 52.2429C39.1459 52.5261 38.8702 52.5261 38.5945 52.5261ZM38.4567 47.8531C38.3189 47.8531 38.181 47.8531 38.0432 47.9947C37.9054 47.9947 37.9054 48.1363 37.7675 48.2779C37.6297 48.4195 37.6297 48.4195 37.6297 48.5611C37.6297 48.7027 37.4918 48.8443 37.4918 48.9859H39.2837V48.8443C39.2837 48.5611 39.2837 48.2779 39.0081 48.1363C38.8702 47.9947 38.7324 47.8531 38.4567 47.8531Z" fill="white"/>
<path d="M42.1781 52.5262V47.8532H41.3511V46.5787H42.1781V46.1539C42.1781 45.8707 42.1781 45.4458 42.3159 45.3042C42.4538 45.021 42.5916 44.8794 42.7295 44.5962C42.8673 44.4546 43.143 44.313 43.4186 44.1714C43.6943 44.0298 43.97 44.0298 44.3835 44.0298C44.5213 44.0298 44.6592 44.0298 44.797 44.0298C44.9349 44.0298 45.0727 44.0298 45.2105 44.1714V45.5875H45.0727C45.0727 45.5875 44.9349 45.5875 44.797 45.5875C44.5213 45.5875 44.3835 45.5875 44.2457 45.7291C43.97 45.7291 43.97 45.8707 43.97 46.1539V46.5787H45.0727V47.8532H43.97V52.5262H42.1781Z" fill="white"/>
<path d="M48.3809 52.5261C47.9674 52.5261 47.5539 52.3845 47.1404 52.2429C46.7269 52.1013 46.4512 51.8181 46.1755 51.6765C45.8998 51.3932 45.762 51.11 45.6242 50.8268C45.4863 50.5436 45.4863 50.1188 45.4863 49.694V49.5524C45.4863 49.1275 45.4863 48.7027 45.6242 48.4195C45.762 47.9947 45.8998 47.7115 46.1755 47.4283C46.4512 47.145 46.7269 47.0034 47.0025 46.7202C47.2782 46.437 47.6917 46.437 48.2431 46.437C48.6566 46.437 49.0701 46.437 49.3458 46.5786C49.6215 46.7202 49.8971 46.8618 50.1728 47.145C50.4485 47.4283 50.5863 47.7115 50.7242 47.9947C50.862 48.2779 50.862 48.7027 50.862 49.1275V49.8356H47.2782C47.2782 50.1188 47.4161 50.402 47.6917 50.5436C47.9674 50.6852 48.2431 50.8268 48.5188 50.8268C48.7944 50.8268 48.9323 50.8268 49.2079 50.6852C49.4836 50.5436 49.6215 50.402 49.7593 50.2604L50.5863 51.2516C50.4485 51.3932 50.3106 51.5349 50.1728 51.6765C50.035 51.8181 49.8971 51.9597 49.6215 51.9597C49.4836 52.1013 49.2079 52.1013 48.9323 52.2429C48.9323 52.5261 48.6566 52.5261 48.3809 52.5261ZM48.1052 47.8531C47.9674 47.8531 47.8296 47.8531 47.6917 47.9947C47.5539 47.9947 47.5539 48.1363 47.4161 48.2779C47.2782 48.4195 47.2782 48.4195 47.2782 48.5611C47.2782 48.7027 47.1404 48.8443 47.1404 48.9859H48.9323V48.8443C48.9323 48.5611 48.9323 48.2779 48.6566 48.1363C48.6566 47.9947 48.3809 47.8531 48.1052 47.8531Z" fill="white"/>
<path d="M54.9972 48.2781C54.9972 48.2781 54.8594 48.2781 54.9972 48.2781C54.8594 48.2781 54.7215 48.2781 54.7215 48.2781H54.5837H54.4459C54.1702 48.2781 53.8945 48.2781 53.7567 48.4197C53.6188 48.5613 53.481 48.7029 53.3432 48.8445V52.5263H51.5513V46.5788H53.2053V47.2869C53.3432 47.0037 53.481 46.8621 53.7567 46.5788C54.0323 46.2956 54.1702 46.2956 54.4459 46.2956C54.5837 46.2956 54.5837 46.2956 54.7215 46.2956C54.8594 46.2956 54.8594 46.2956 54.9972 46.2956V48.2781Z" fill="white"/>
<path d="M59.1322 48.2781C58.9944 48.2781 58.9944 48.2781 59.1322 48.2781C58.9944 48.2781 58.8565 48.2781 58.8565 48.2781H58.7187H58.5809C58.3052 48.2781 58.0295 48.2781 57.8917 48.4197C57.7538 48.5613 57.616 48.7029 57.4782 48.8445V52.5263H55.6863V46.5788H57.3403V47.2869C57.4782 47.0037 57.616 46.8621 57.8917 46.5788C58.1674 46.4372 58.3052 46.2956 58.5809 46.2956C58.7187 46.2956 58.7187 46.2956 58.8565 46.2956C58.9944 46.2956 58.9944 46.2956 59.1322 46.2956V48.2781Z" fill="white"/>
<path d="M62.4403 52.5261C62.0267 52.5261 61.6132 52.3845 61.1997 52.2429C60.7862 52.1013 60.5105 51.8181 60.2348 51.6765C59.9592 51.3932 59.8213 51.11 59.6835 50.8268C59.5457 50.5436 59.5457 50.1188 59.5457 49.694V49.5524C59.5457 49.1275 59.5457 48.7027 59.6835 48.4195C59.8213 47.9947 59.9592 47.7115 60.2348 47.4283C60.5105 47.145 60.7862 47.0034 61.0619 46.7202C61.3375 46.437 61.7511 46.437 62.3024 46.437C62.7159 46.437 63.1294 46.437 63.4051 46.5786C63.6808 46.7202 63.9565 46.8618 64.2321 47.145C64.5078 47.4283 64.6457 47.7115 64.7835 47.9947C64.9213 48.2779 64.9213 48.7027 64.9213 49.1275V49.8356H61.3375C61.3375 50.1188 61.4754 50.402 61.7511 50.5436C62.0267 50.6852 62.3024 50.8268 62.5781 50.8268C62.8538 50.8268 62.9916 50.8268 63.2673 50.6852C63.543 50.5436 63.6808 50.402 63.8186 50.2604L64.6457 51.2516C64.5078 51.3932 64.37 51.5349 64.2321 51.6765C64.0943 51.8181 63.9565 51.9597 63.6808 51.9597C63.543 52.1013 63.2673 52.1013 62.9916 52.2429C62.9916 52.5261 62.7159 52.5261 62.4403 52.5261ZM62.1646 47.8531C62.0267 47.8531 61.8889 47.8531 61.7511 47.9947C61.6132 47.9947 61.6132 48.1363 61.4754 48.2779C61.3375 48.4195 61.3375 48.4195 61.3375 48.5611C61.3375 48.7027 61.1997 48.8443 61.1997 48.9859H62.9916V48.8443C62.9916 48.5611 62.9916 48.2779 62.7159 48.1363C62.7159 47.9947 62.4403 47.8531 62.1646 47.8531Z" fill="white"/>
<path d="M65.335 49.5524C65.335 49.1276 65.335 48.7028 65.4728 48.278C65.6106 47.8532 65.7485 47.57 65.8863 47.2867C66.0242 47.0035 66.2998 46.8619 66.5755 46.7203C66.8512 46.5787 67.1269 46.4371 67.5404 46.4371C67.816 46.4371 68.0917 46.4371 68.2296 46.5787C68.5052 46.7203 68.6431 46.8619 68.7809 47.0035V44.0298H70.5728V52.3846H68.9187L68.7809 51.8182C68.6431 52.1014 68.3674 52.243 68.2296 52.3846C67.9539 52.5262 67.6782 52.5262 67.4025 52.5262C66.989 52.5262 66.7133 52.3846 66.4377 52.243C66.162 52.1014 65.8863 51.8182 65.7485 51.6765C65.6106 51.3933 65.4728 51.1101 65.335 50.6853C65.335 50.4021 65.335 49.9773 65.335 49.5524ZM67.1269 49.5524C67.1269 49.8357 67.1269 49.9773 67.1269 50.1189C67.1269 50.2605 67.2647 50.5437 67.2647 50.6853C67.2647 50.8269 67.4025 50.9685 67.5404 50.9685C67.6782 51.1101 67.816 51.1101 67.9539 51.1101C68.0917 51.1101 68.3674 51.1101 68.5052 50.9685C68.6431 50.8269 68.7809 50.6853 68.7809 50.5437V48.278C68.6431 47.9948 68.3674 47.7116 67.9539 47.7116C67.816 47.7116 67.6782 47.7116 67.5404 47.8532C67.4025 47.9948 67.2647 47.9948 67.2647 48.1364C67.2647 48.278 67.1269 48.4196 67.1269 48.7028C67.1269 49.1276 67.1269 49.2692 67.1269 49.5524Z" fill="white"/>
<path d="M74.5701 52.5264V44.5964H76.9133C77.4647 44.5964 77.8782 44.738 78.2917 44.8797C78.7052 45.0213 79.1187 45.3045 79.3944 45.5877C79.6701 45.8709 79.9457 46.2957 80.0836 46.7205C80.2214 47.1454 80.3593 47.7118 80.3593 48.2782V48.703C80.3593 49.2695 80.2214 49.8359 80.0836 50.2607C79.9457 50.6855 79.6701 51.1104 79.3944 51.3936C79.1187 51.6768 78.7052 51.96 78.2917 52.1016C77.8782 52.2432 77.3268 52.3848 76.7755 52.3848H74.5701V52.5264ZM75.9484 45.7293V51.3936H76.7755C77.189 51.3936 77.4647 51.3936 77.7403 51.252C78.016 51.1104 78.2917 50.9687 78.4295 50.6855C78.5674 50.4023 78.7052 50.1191 78.843 49.8359C78.9809 49.5527 78.9809 49.1279 78.9809 48.703V48.2782C78.9809 47.4286 78.843 46.7205 78.4295 46.2957C78.016 45.8709 77.6025 45.5877 76.7755 45.5877H75.9484V45.7293Z" fill="white"/>
<path d="M81.5999 45.0213C81.5999 44.8797 81.5999 44.5965 81.7377 44.4549C81.8755 44.3133 82.0134 44.3133 82.289 44.3133C82.5647 44.3133 82.7026 44.3133 82.8404 44.4549C82.9782 44.5965 82.9782 44.7381 82.9782 45.0213C82.9782 45.1629 82.9782 45.4461 82.8404 45.5878C82.7026 45.7294 82.5647 45.7294 82.289 45.7294C82.0134 45.7294 81.8755 45.7294 81.7377 45.5878C81.5999 45.4461 81.5999 45.3045 81.5999 45.0213ZM82.9782 52.5265H81.7377V46.579H82.9782V52.5265Z" fill="white"/>
<path d="M87.5269 50.8271C87.5269 50.6855 87.5269 50.6855 87.5269 50.5439C87.5269 50.4023 87.389 50.4023 87.389 50.2606C87.2512 50.2606 87.1133 50.119 86.9755 50.119C86.8377 50.119 86.562 49.9774 86.2863 49.9774C86.0106 49.9774 85.735 49.8358 85.4593 49.6942C85.1836 49.5526 85.0458 49.411 84.7701 49.2694C84.6323 49.1278 84.4944 48.9862 84.3566 48.8446C84.2188 48.703 84.2188 48.4198 84.2188 48.1365C84.2188 47.8533 84.2188 47.7117 84.3566 47.4285C84.4944 47.1453 84.6323 47.0037 84.7701 46.8621C84.9079 46.7205 85.1836 46.5789 85.4593 46.4373C85.735 46.2957 86.0107 46.2957 86.4242 46.2957C86.8377 46.2957 87.1134 46.2957 87.389 46.4373C87.6647 46.5789 87.9404 46.7205 88.0782 46.8621C88.2161 47.0037 88.4917 47.2869 88.4917 47.4285C88.6296 47.7117 88.6296 47.8533 88.6296 48.1365H87.389C87.389 47.9949 87.389 47.8533 87.389 47.8533C87.389 47.7117 87.2512 47.7117 87.2512 47.5701C87.1134 47.4285 87.1133 47.4285 86.9755 47.4285C86.8377 47.4285 86.6998 47.2869 86.562 47.2869C86.4242 47.2869 86.2863 47.2869 86.1485 47.2869C86.0106 47.2869 85.8728 47.4285 85.8728 47.4285C85.735 47.4285 85.735 47.5701 85.735 47.7117C85.735 47.8533 85.735 47.8533 85.735 47.9949C85.735 48.1365 85.735 48.1365 85.735 48.2782C85.735 48.4198 85.8728 48.4198 85.8728 48.4198C86.0106 48.4198 86.1485 48.5614 86.2863 48.5614C86.4242 48.5614 86.562 48.703 86.8377 48.703C87.1133 48.8446 87.5269 48.8446 87.6647 48.9862C87.9404 49.1278 88.2161 49.2694 88.3539 49.411C88.4917 49.5526 88.6296 49.6942 88.7674 49.9774C88.9052 50.119 88.9052 50.4023 88.9052 50.6855C88.9052 50.9687 88.9052 51.2519 88.7674 51.3935C88.6296 51.6767 88.4917 51.8183 88.3539 51.9599C88.2161 52.1015 87.9404 52.2431 87.6647 52.3847C87.389 52.5264 87.1134 52.5264 86.6998 52.5264C86.2863 52.5264 86.0106 52.5264 85.5971 52.3847C85.3215 52.2431 85.0458 52.1015 84.7701 51.9599C84.6323 51.8183 84.3566 51.5351 84.3566 51.3935C84.2188 51.1103 84.2188 50.9687 84.2188 50.6855H85.3215C85.3215 50.8271 85.3215 50.9687 85.4593 51.1103C85.5971 51.2519 85.5971 51.3935 85.735 51.3935C85.8728 51.5351 86.0106 51.5351 86.1485 51.5351C86.2863 51.5351 86.4242 51.5351 86.562 51.5351C86.8377 51.5351 87.1134 51.5351 87.389 51.3935C87.5269 51.2519 87.5269 51.1103 87.5269 50.8271Z" fill="white"/>
<path d="M91.5242 45.1628V46.5788H92.489V47.5701H91.5242V50.827C91.5242 50.9686 91.5242 51.1102 91.5242 51.1102C91.5242 51.2518 91.662 51.2518 91.662 51.2518L91.7998 51.3935C91.9377 51.3935 91.9377 51.3935 92.0755 51.3935C92.2133 51.3935 92.2133 51.3935 92.3512 51.3935C92.489 51.3935 92.489 51.3935 92.489 51.3935V52.3847C92.3512 52.3847 92.2133 52.3847 92.0755 52.5263C91.9377 52.5263 91.7998 52.5263 91.5242 52.5263C91.2485 52.5263 91.1106 52.5263 90.9728 52.3847C90.835 52.3847 90.6971 52.2431 90.5593 52.1015C90.4215 51.9599 90.2836 51.8183 90.2836 51.5351C90.2836 51.2518 90.1458 51.1102 90.1458 50.827V47.4285H89.1809V46.5788H90.1458V45.1628H91.5242Z" fill="white"/>
<path d="M96.4864 47.8533C96.3486 47.8533 96.3486 47.8533 96.2107 47.8533C96.0729 47.8533 96.0729 47.8533 95.935 47.8533C95.6594 47.8533 95.3837 47.8533 95.108 47.9949C94.9702 48.1365 94.8323 48.2781 94.6945 48.5613V52.5263H93.5918V46.5788H94.8323V47.2868C94.9702 47.0036 95.108 46.862 95.3837 46.7204C95.6594 46.5788 95.7972 46.5788 96.0729 46.5788C96.2107 46.5788 96.2107 46.5788 96.3486 46.5788C96.4864 46.5788 96.4864 46.5788 96.4864 46.5788V47.8533Z" fill="white"/>
<path d="M97.3132 45.0213C97.3132 44.8797 97.3132 44.5965 97.4511 44.4549C97.5889 44.3133 97.7267 44.3133 98.0024 44.3133C98.2781 44.3133 98.4159 44.3133 98.5538 44.4549C98.6916 44.5965 98.6916 44.7381 98.6916 45.0213C98.6916 45.1629 98.6916 45.4461 98.5538 45.5878C98.4159 45.7294 98.2781 45.7294 98.0024 45.7294C97.7267 45.7294 97.5889 45.7294 97.4511 45.5878C97.4511 45.4461 97.3132 45.3045 97.3132 45.0213ZM98.6916 52.5265H97.4511V46.579H98.6916V52.5265Z" fill="white"/>
<path d="M105.17 49.5526C105.17 49.9774 105.17 50.4023 105.032 50.6855C104.894 50.9687 104.756 51.3935 104.619 51.6767C104.481 51.9599 104.205 52.1016 103.929 52.2432C103.654 52.3848 103.378 52.5264 102.965 52.5264C102.551 52.5264 102.275 52.5264 102 52.3848C101.724 52.2432 101.586 52.1016 101.31 51.8183V52.5264H100.208V44.1716H101.448V47.1453C101.586 46.8621 101.862 46.7205 102.137 46.5789C102.413 46.4373 102.689 46.4373 102.965 46.4373C103.378 46.4373 103.654 46.5789 103.929 46.7205C104.205 46.8621 104.481 47.1453 104.619 47.2869C104.756 47.5701 104.894 47.8533 105.032 48.2782C105.17 48.703 105.17 48.9862 105.17 49.5526ZM103.929 49.5526C103.929 49.2694 103.929 48.9862 103.929 48.8446C103.929 48.5614 103.792 48.4198 103.654 48.2782C103.516 48.1366 103.378 47.995 103.24 47.8534C103.102 47.7117 102.827 47.7117 102.689 47.7117C102.413 47.7117 102.137 47.7117 102 47.8534C101.862 47.995 101.724 48.1366 101.586 48.4198V50.8271C101.724 51.1103 101.862 51.2519 102 51.3935C102.137 51.5351 102.413 51.5351 102.689 51.5351C102.965 51.5351 103.102 51.5351 103.24 51.3935C103.378 51.2519 103.516 51.1103 103.654 50.9687C103.792 50.8271 103.792 50.5439 103.929 50.4023C104.067 50.2607 103.929 49.8358 103.929 49.5526Z" fill="white"/>
<path d="M109.719 51.9601C109.581 52.2433 109.305 52.3849 109.03 52.5265C108.754 52.6681 108.478 52.6681 108.065 52.6681C107.789 52.6681 107.513 52.6681 107.238 52.5265C106.962 52.3849 106.824 52.3849 106.686 52.1017C106.549 51.9601 106.411 51.6769 106.273 51.3937C106.135 51.1104 106.135 50.8272 106.135 50.4024V46.579H107.376V50.4024C107.376 50.6856 107.376 50.8272 107.513 50.9688C107.651 51.1104 107.651 51.252 107.651 51.252C107.789 51.3936 107.789 51.3937 107.927 51.3937C108.065 51.3937 108.203 51.3937 108.203 51.3937C108.478 51.3937 108.754 51.3936 109.03 51.252C109.167 51.1104 109.443 50.9688 109.443 50.6856V46.4374H110.684V52.3849H109.443L109.719 51.9601Z" fill="white"/>
<path d="M113.854 45.1628V46.5788H114.819V47.5701H113.854V50.827C113.854 50.9686 113.854 51.1102 113.854 51.1102C113.854 51.2518 113.854 51.2518 113.992 51.2518L114.13 51.3935C114.13 51.3935 114.267 51.3935 114.405 51.3935C114.543 51.3935 114.543 51.3935 114.681 51.3935C114.819 51.3935 114.819 51.3935 114.819 51.3935V52.3847C114.681 52.3847 114.543 52.3847 114.405 52.5263C114.267 52.5263 114.13 52.5263 113.854 52.5263C113.578 52.5263 113.44 52.5263 113.303 52.3847C113.165 52.3847 113.027 52.2431 112.889 52.1015C112.751 51.9599 112.613 51.8183 112.613 51.5351C112.613 51.2518 112.476 51.1102 112.476 50.827V47.4285H111.511V46.5788H112.476V45.1628H113.854Z" fill="white"/>
<path d="M115.508 49.5525C115.508 49.1277 115.508 48.7029 115.646 48.4197C115.783 48.1365 115.921 47.7116 116.197 47.4284C116.473 47.1452 116.748 47.0036 117.024 46.862C117.3 46.7204 117.713 46.5788 118.127 46.5788C118.54 46.5788 118.954 46.7204 119.229 46.862C119.505 47.0036 119.781 47.2868 120.056 47.4284C120.332 47.7116 120.47 47.9949 120.608 48.4197C120.746 48.8445 120.746 49.1277 120.746 49.5525V49.6941C120.746 50.119 120.746 50.5438 120.608 50.827C120.47 51.2518 120.332 51.535 120.056 51.8182C119.781 52.1015 119.505 52.2431 119.229 52.3847C118.954 52.5263 118.54 52.6679 118.127 52.6679C117.713 52.6679 117.3 52.5263 117.024 52.3847C116.748 52.2431 116.473 51.9599 116.197 51.8182C115.921 51.535 115.783 51.2518 115.646 50.827C115.508 50.4022 115.508 49.9774 115.508 49.5525ZM116.748 49.5525C116.748 49.8358 116.748 50.119 116.886 50.2606C116.886 50.5438 117.024 50.6854 117.162 50.827C117.3 50.9686 117.438 51.1102 117.575 51.2518C117.713 51.3934 117.989 51.3934 118.265 51.3934C118.54 51.3934 118.678 51.3934 118.816 51.2518C118.954 51.1102 119.092 50.9686 119.229 50.827C119.367 50.6854 119.367 50.4022 119.505 50.2606C119.505 49.9774 119.643 49.8358 119.643 49.5525V49.4109C119.643 49.1277 119.643 48.8445 119.505 48.7029C119.505 48.4197 119.367 48.2781 119.229 48.1365C119.092 47.9949 118.954 47.8533 118.816 47.7116C118.678 47.57 118.402 47.57 118.127 47.57C117.851 47.57 117.713 47.57 117.575 47.7116C117.438 47.8533 117.3 47.9949 117.162 48.1365C117.024 48.2781 117.024 48.5613 116.886 48.7029C116.748 48.9861 116.748 49.2693 116.748 49.5525Z" fill="white"/>
<path d="M124.881 47.8533C124.743 47.8533 124.743 47.8533 124.605 47.8533C124.468 47.8533 124.468 47.8533 124.33 47.8533C124.054 47.8533 123.778 47.8533 123.503 47.9949C123.365 48.1365 123.227 48.2781 123.089 48.5613V52.5263H121.849V46.5788H123.089V47.2868C123.227 47.0036 123.365 46.862 123.641 46.7204C123.916 46.5788 124.054 46.5788 124.33 46.5788C124.468 46.5788 124.468 46.5788 124.605 46.5788C124.743 46.5788 124.743 46.5788 124.743 46.5788L124.881 47.8533Z" fill="white"/>
<path d="M35.2864 20.6647V31.002C35.2864 31.5684 35.1485 32.1348 35.0107 32.5596C34.8729 33.1261 34.5972 33.5509 34.1837 33.9757C33.7702 34.4005 33.2188 34.6837 32.5296 34.967C31.8404 35.2502 31.0134 35.3918 30.0485 35.3918C29.0837 35.3918 28.2566 35.2502 27.5674 34.967C26.8783 34.6837 26.3269 34.4005 25.9134 33.9757C25.4999 33.5509 25.2242 33.1261 25.0864 32.5596C24.6729 32.1348 24.6729 31.5684 24.6729 31.002V20.6647H27.8431V30.7188C27.8431 31.2852 27.981 31.71 28.2566 32.1348C28.5323 32.418 29.0837 32.5596 29.9107 32.5596C30.7377 32.5596 31.2891 32.418 31.5647 32.1348C31.8404 31.8516 31.9783 31.4268 31.9783 30.7188V20.6647H35.2864Z" fill="white"/>
<path d="M40.938 25.6209V35.2502H37.9055V20.6647H41.765L46.4515 30.7188V20.6647H49.4839V35.2502H45.4866L40.938 25.6209Z" fill="white"/>
<path d="M51.9648 35.2502V20.6647H55.1351V35.2502H51.9648Z" fill="white"/>
<path d="M65.7486 35.2502H61.1999L57.2026 20.6647H60.5107L63.5432 32.2764L66.5756 20.6647H69.8837L65.7486 35.2502Z" fill="white"/>
<path d="M71.3997 35.2502V20.6647H80.3591V23.6384H74.7078V26.3289H79.9456V29.3027H74.7078V32.418H80.3591V35.2502H71.3997Z" fill="white"/>
<path d="M119.23 35.2502V20.6647H122.538V32.2764H128.189V35.2502H119.23Z" fill="white"/>
<path d="M159.34 31.0022C159.34 31.5686 159.202 32.135 159.065 32.5599C158.927 33.1263 158.513 33.5511 158.1 33.9759C157.686 34.4008 157.135 34.684 156.446 34.9672C155.756 35.2504 154.929 35.392 153.965 35.392C153 35.392 152.173 35.2504 151.483 34.9672C150.794 34.684 150.243 34.4008 149.829 33.9759C149.416 33.5511 149.14 33.1263 148.865 32.5599C148.727 31.9934 148.589 31.427 148.589 31.0022V24.9131C148.589 24.3467 148.727 23.7802 148.865 23.3554C149.002 22.789 149.416 22.3642 149.829 21.9394C150.243 21.5145 150.794 21.2313 151.483 20.9481C152.173 20.6649 153 20.5233 153.965 20.5233C154.929 20.5233 155.756 20.6649 156.446 20.9481C157.135 21.2313 157.686 21.5145 158.1 21.9394C158.513 22.3642 158.789 22.789 159.065 23.3554C159.202 23.9218 159.34 24.4883 159.34 24.9131V31.0022ZM156.17 25.1963C156.17 24.6299 156.032 24.2051 155.619 23.9218C155.205 23.6386 154.654 23.497 153.827 23.497C153 23.497 152.448 23.6386 152.035 23.9218C151.621 24.2051 151.483 24.6299 151.483 25.1963V30.719C151.483 31.2854 151.621 31.7102 152.035 31.9934C152.448 32.2767 153 32.4183 153.827 32.4183C154.654 32.4183 155.205 32.2767 155.619 31.9934C156.032 31.7102 156.17 31.2854 156.17 30.719V25.1963Z" fill="white"/>
<path d="M171.332 31.71C171.332 32.7013 171.057 33.5509 170.367 34.2589C169.678 34.967 168.713 35.2502 167.197 35.2502H161.132V20.6647H166.784C168.3 20.6647 169.265 20.9479 169.954 21.5143C170.505 22.0807 170.919 22.9304 170.919 23.78V25.1961C170.919 25.7625 170.781 26.1873 170.505 26.6122C170.23 27.037 169.816 27.3202 169.265 27.6034C169.816 27.745 170.367 28.0282 170.781 28.5947C171.194 29.0195 171.332 29.7275 171.332 30.2939V31.71ZM167.611 24.3464C167.611 24.0632 167.473 23.78 167.335 23.6384C167.197 23.4968 166.784 23.3552 166.37 23.3552H164.44V26.6122H166.37C166.784 26.6122 167.059 26.4706 167.335 26.3289C167.611 26.1873 167.611 25.9041 167.611 25.6209V24.3464ZM168.162 30.4355C168.162 30.0107 168.024 29.7275 167.749 29.5859C167.473 29.4443 167.197 29.3027 166.784 29.3027H164.303V32.7013H166.232C166.784 32.7013 167.197 32.5596 167.473 32.418C167.886 32.2764 168.024 31.8516 168.024 31.4268V30.4355H168.162Z" fill="white"/>
<path d="M184.014 31.0022C184.014 31.5686 183.876 32.135 183.738 32.5599C183.6 33.1263 183.187 33.5511 182.773 33.9759C182.359 34.4008 181.808 34.684 181.119 34.9672C180.43 35.2504 179.603 35.392 178.638 35.392C177.673 35.392 176.846 35.2504 176.157 34.9672C175.468 34.684 174.916 34.4008 174.503 33.9759C174.089 33.5511 173.814 33.1263 173.538 32.5599C173.4 31.9934 173.262 31.427 173.262 31.0022V24.9131C173.262 24.3467 173.4 23.7802 173.538 23.3554C173.676 22.789 174.089 22.3642 174.503 21.9394C174.916 21.5145 175.468 21.2313 176.157 20.9481C176.846 20.6649 177.673 20.5233 178.638 20.5233C179.603 20.5233 180.43 20.6649 181.119 20.9481C181.808 21.2313 182.359 21.5145 182.773 21.9394C183.187 22.3642 183.462 22.789 183.738 23.3554C183.876 23.9218 184.014 24.4883 184.014 24.9131V31.0022ZM180.843 25.1963C180.843 24.6299 180.705 24.2051 180.292 23.9218C179.878 23.6386 179.327 23.497 178.5 23.497C177.673 23.497 177.122 23.6386 176.708 23.9218C176.295 24.2051 176.157 24.6299 176.157 25.1963V30.719C176.157 31.2854 176.295 31.7102 176.708 31.9934C177.122 32.2767 177.673 32.4183 178.5 32.4183C179.327 32.4183 179.878 32.2767 180.292 31.9934C180.705 31.7102 180.843 31.2854 180.843 30.719V25.1963Z" fill="white"/>
<path d="M191.87 23.6384V35.2502H188.7V23.6384H184.84V20.6647H195.592V23.6384H191.87Z" fill="white"/>
<path d="M109.305 20.6647H113.854L117.851 35.2502H114.543L111.511 23.6384L108.616 35.2502H105.308L109.305 20.6647Z" fill="white"/>
<path d="M104.619 31.2852C104.619 31.9932 104.481 32.5596 104.343 33.1261C104.205 33.6925 103.93 34.1173 103.516 34.4005C103.103 34.8254 102.551 34.967 102 35.2502C101.311 35.3918 100.484 35.5334 99.381 35.5334C98.554 35.5334 97.727 35.3918 96.8999 35.2502C96.0729 35.1086 95.7972 34.967 95.3837 34.8254V32.1348C96.0729 32.2764 96.7621 32.5596 97.3135 32.5596C98.0026 32.7013 98.6918 32.7013 99.381 32.7013C99.7945 32.7013 100.07 32.7013 100.346 32.7013C100.622 32.7013 100.759 32.5596 100.897 32.418C101.035 32.2764 101.173 32.1348 101.173 31.9932C101.173 31.8516 101.311 31.5684 101.311 31.2852C101.311 31.002 101.311 30.7188 101.311 30.4355C101.311 30.2939 101.173 30.0107 101.035 30.0107C100.897 29.8691 100.622 29.7275 100.346 29.7275C100.07 29.5859 99.5189 29.4443 98.9675 29.4443C98.1405 29.3027 97.4513 29.0195 96.8999 28.8779C96.3486 28.7363 95.9351 28.453 95.6594 28.0282C95.3837 27.745 95.2459 27.3202 95.1081 26.7538C94.9702 26.1873 94.9702 25.6209 94.9702 24.7713C94.9702 24.0632 95.108 23.4968 95.2459 22.9304C95.3837 22.364 95.6594 22.0807 96.0729 21.6559C96.4864 21.3727 96.8999 21.0895 97.5891 20.9479C98.2783 20.8063 98.9675 20.6647 100.07 20.6647C100.759 20.6647 101.311 20.6647 102.138 20.8063C102.827 20.9479 103.654 20.9479 104.343 21.2311V24.0632C103.516 23.9216 102.551 23.78 102 23.6384C101.449 23.6384 100.759 23.4968 100.208 23.4968C99.7945 23.4968 99.5189 23.4968 99.381 23.4968C99.1053 23.4968 98.9675 23.6384 98.8297 23.6384C98.6918 23.78 98.554 23.9216 98.554 24.0632C98.554 24.2048 98.4162 24.4881 98.4162 24.7713C98.4162 25.0545 98.4162 25.3377 98.4162 25.6209C98.4162 25.7625 98.554 25.9041 98.6918 26.0457C98.8297 26.1873 99.1053 26.3289 99.381 26.3289C99.6567 26.4706 100.07 26.4706 100.622 26.6122C101.586 26.8954 102.276 27.037 102.827 27.3202C103.378 27.6034 103.792 27.8866 104.068 28.1698C104.343 28.453 104.481 28.8779 104.619 29.3027C104.619 29.8691 104.619 30.5772 104.619 31.2852Z" fill="white"/>
<path d="M205.93 31.2852C205.93 31.9932 205.792 32.5596 205.654 33.1261C205.516 33.6925 205.24 34.1173 204.827 34.4005C204.413 34.8254 203.862 34.967 203.311 35.2502C202.622 35.3918 201.795 35.5334 200.692 35.5334C199.865 35.5334 199.038 35.3918 198.211 35.2502C197.384 35.1086 197.108 34.967 196.695 34.8254V32.1348C197.384 32.2764 198.073 32.5596 198.624 32.5596C199.313 32.7013 200.003 32.7013 200.692 32.7013C201.105 32.7013 201.381 32.7013 201.657 32.7013C201.932 32.7013 202.07 32.5596 202.208 32.418C202.346 32.2764 202.484 32.1348 202.484 31.9932C202.484 31.8516 202.622 31.5684 202.622 31.2852C202.622 31.002 202.622 30.7188 202.622 30.4355C202.622 30.2939 202.484 30.0107 202.346 30.0107C202.208 29.8691 201.932 29.7275 201.657 29.7275C201.381 29.5859 200.83 29.4443 200.278 29.4443C199.451 29.3027 198.762 29.0195 198.211 28.8779C197.659 28.7363 197.246 28.453 196.97 28.0282C196.695 27.745 196.557 27.3202 196.419 26.7538C196.281 26.1873 196.281 25.6209 196.281 24.7713C196.281 24.0632 196.419 23.4968 196.557 22.9304C196.695 22.364 196.97 22.0807 197.384 21.6559C197.797 21.3727 198.211 21.0895 198.9 20.9479C199.589 20.8063 200.278 20.6647 201.381 20.6647C202.07 20.6647 202.622 20.6647 203.449 20.8063C204.138 20.9479 204.965 20.9479 205.654 21.2311V24.0632C204.827 23.9216 203.862 23.78 203.311 23.6384C202.759 23.6384 202.07 23.4968 201.519 23.4968C201.105 23.4968 200.83 23.4968 200.692 23.4968C200.416 23.4968 200.278 23.6384 200.14 23.6384C200.003 23.78 199.865 23.9216 199.865 24.0632C199.865 24.2048 199.727 24.4881 199.727 24.7713C199.727 25.0545 199.727 25.3377 199.727 25.6209C199.727 25.7625 199.865 25.9041 200.003 26.0457C200.14 26.1873 200.416 26.3289 200.692 26.3289C200.967 26.4706 201.381 26.4706 201.932 26.6122C202.897 26.8954 203.586 27.037 204.138 27.3202C204.689 27.6034 205.103 27.8866 205.378 28.1698C205.654 28.453 205.792 28.8779 205.93 29.3027C205.93 29.8691 205.93 30.5772 205.93 31.2852Z" fill="white"/>
<path d="M89.3189 25.6209C89.3189 25.9041 89.181 26.1873 89.0432 26.3289C88.7675 26.4706 88.4918 26.6122 88.0783 26.6122H86.1486V23.3552H88.0783C88.4918 23.3552 88.9053 23.4968 89.0432 23.6384C89.181 23.78 89.3189 24.0632 89.3189 24.3464V25.6209ZM90.8351 27.6034C91.3864 27.3202 91.7999 27.037 92.0756 26.6122C92.3513 26.1873 92.4891 25.7625 92.4891 25.1961V23.78C92.4891 22.7888 92.2135 22.0807 91.5243 21.5143C90.9729 20.9479 89.8702 20.6647 88.354 20.6647H82.7026V35.2502H85.8729V29.1611H88.2162C88.6297 29.1611 88.9054 29.3027 89.181 29.4443C89.4567 29.5859 89.5945 30.0107 89.5945 30.2939V35.2502H92.7648V30.2939C92.7648 29.5859 92.627 29.0195 92.2135 28.5947C91.9378 28.0282 91.5243 27.745 90.8351 27.6034Z" fill="white"/>
<path d="M142.8 25.6209C142.8 25.9041 142.662 26.1873 142.524 26.3289C142.249 26.4706 141.973 26.6122 141.559 26.6122H139.63V23.3552H141.559C141.973 23.3552 142.386 23.4968 142.524 23.6384C142.662 23.78 142.8 24.0632 142.8 24.3464V25.6209ZM144.454 27.6034C145.005 27.3202 145.419 27.037 145.695 26.6122C145.97 26.1873 146.108 25.7625 146.108 25.1961V23.78C146.108 22.7888 145.832 22.0807 145.143 21.5143C144.592 20.9479 143.489 20.6647 141.973 20.6647H136.322V35.2502H139.492V29.1611H141.835C142.249 29.1611 142.524 29.3027 142.8 29.4443C143.076 29.5859 143.213 30.0107 143.213 30.2939V35.2502H146.384V30.2939C146.384 29.5859 146.246 29.0195 145.832 28.5947C145.557 28.0282 145.005 27.745 144.454 27.6034Z" fill="white"/>
<path d="M18.7459 20.3816L13.7838 15.4254C13.2324 14.8589 12.8189 14.1509 12.8189 14.1509C12.1297 12.5932 12.8189 11.1772 12.8189 11.1772C13.2324 10.1859 14.0595 9.19467 14.0595 9.19467C15.1622 7.92021 15.0243 6.92896 15.0243 6.92896C15.0243 6.22092 14.473 5.7961 14.3351 5.6545C14.0595 5.51289 13.6459 5.37128 13.0946 5.37128C12.4054 5.37128 11.8541 5.51289 11.5784 5.7961C11.3027 6.07932 11.1649 6.50414 11.1649 6.92896V11.7436V15.1422C11.1649 15.567 11.027 16.1334 10.8892 16.5582C10.7514 16.983 10.4757 17.4079 10.2 17.8327C9.78649 18.2575 9.37297 18.5407 8.82162 18.6823C8.27027 18.9655 7.58108 18.9655 6.61622 18.9655C5.78919 18.9655 5.1 18.8239 4.54865 18.6823C3.9973 18.3991 3.44595 18.1159 3.17027 17.8327C2.75676 17.4079 2.61892 17.1247 2.48108 16.5582C2.34324 16.1334 2.20541 15.7086 2.20541 15.1422V0.273438H1.51622C0.689189 0.273438 0 0.981471 0 1.83111V18.8239C0 19.6736 0.689189 20.3816 1.51622 20.3816H18.0568C18.3324 20.5232 18.4703 20.5232 18.7459 20.3816Z" fill="#7BA6D9"/>
<path d="M18.0567 0.273438H4.82422V14.8589C4.82422 15.4254 4.96206 15.7086 5.23773 15.9918C5.51341 16.275 5.92692 16.4166 6.61611 16.4166C7.3053 16.4166 7.71881 16.275 7.99449 15.9918C8.27016 15.7086 8.408 15.2838 8.408 14.8589V12.0268V6.78735C8.408 6.36253 8.54584 5.7961 8.68368 5.37128C8.82151 4.94646 9.09719 4.52164 9.5107 4.09682C9.92422 3.672 10.3377 3.38879 11.0269 3.24718C11.5783 2.96397 12.4053 2.96397 13.2323 2.96397C14.0594 2.96397 14.8864 3.10557 15.4377 3.24718C15.9891 3.53039 16.5404 3.81361 16.9539 4.09682C17.3675 4.52164 17.6431 4.80486 17.781 5.37128C17.781 5.51289 17.9188 5.6545 17.9188 5.7961C17.9188 6.07932 18.0567 6.22092 18.0567 6.22092V6.36253C18.0567 6.36253 18.0567 6.36253 18.0567 6.50414V6.64574V6.78735C18.0567 8.34503 17.2296 9.33627 17.2296 9.33627C16.9539 9.7611 15.8512 11.4604 15.8512 11.4604C15.0242 12.5932 15.8512 13.4429 15.8512 13.4429L19.8485 17.5495V1.97272C19.7107 0.981471 19.0215 0.273438 18.0567 0.273438Z" fill="#7BA6D9"/>
<path d="M2.3433 16.5582C2.48114 16.983 2.75682 17.4079 3.03249 17.8327C3.446 18.2575 3.85952 18.5407 4.41087 18.6823C4.96222 18.9655 5.65141 18.9655 6.47844 18.9655C7.30546 18.9655 7.99465 18.8239 8.68384 18.6823C9.23519 18.3991 9.78654 18.1159 10.0622 17.8327C10.4757 17.4079 10.6136 17.1247 10.7514 16.5582C10.8892 16.1334 11.0271 15.7086 11.0271 15.1422V11.7436V6.92896C11.0271 6.50414 11.1649 6.07932 11.4406 5.7961C11.7163 5.51289 12.2676 5.37128 12.9568 5.37128C13.5082 5.37128 13.9217 5.51289 14.1974 5.6545C14.3352 5.7961 14.8865 6.07932 14.8865 6.92896C14.8865 6.92896 15.0244 7.92021 13.9217 9.19467C13.9217 9.19467 13.0947 10.1859 12.6811 11.1772C12.6811 11.1772 11.9919 12.5932 12.6811 14.1509C12.6811 14.1509 13.0947 14.8589 13.646 15.4254L18.6082 20.5232C19.1595 20.24 19.573 19.6736 19.573 18.9655V17.5495L15.5757 13.4429C15.5757 13.4429 14.7487 12.5932 15.5757 11.4604C15.5757 11.4604 16.8163 9.7611 16.9541 9.33628C16.9541 9.33628 17.7811 8.34503 17.7811 6.78735V6.64575V6.50414C17.7811 6.50414 17.7811 6.50414 17.7811 6.36253V6.22092C17.7811 6.22092 17.7811 6.07932 17.6433 5.7961C17.6433 5.6545 17.5055 5.51289 17.5055 5.37128C17.3676 4.94646 17.0919 4.52164 16.6784 4.09682C16.2649 3.672 15.8514 3.38879 15.1622 3.24718C14.6109 2.96397 13.7838 2.96397 12.9568 2.96397C12.1298 2.96397 11.4406 3.10557 10.7514 3.24718C10.3379 3.38879 9.92438 3.672 9.51087 4.09682C9.09735 4.52164 8.82168 4.80486 8.68384 5.37128C8.546 5.7961 8.40817 6.36253 8.40817 6.78735V12.0268V14.8589C8.40817 15.4254 8.27033 15.7086 7.99465 15.9918C7.71898 16.275 7.30546 16.4166 6.61627 16.4166C5.92708 16.4166 5.51357 16.275 5.2379 15.9918C4.96222 15.7086 4.82438 15.2838 4.82438 14.8589V0.273438H2.06763V15.1422C2.20546 15.567 2.20546 15.9918 2.3433 16.5582Z" fill="white"/>
</svg>
