<svg width="42" height="42" viewBox="0 0 42 42" fill="none" xmlns="http://www.w3.org/2000/svg">
<path d="M9.09998 17.5C7.16711 17.5 5.59998 19.0671 5.59998 21C5.59998 22.9329 7.16711 24.5 9.09998 24.5C11.0328 24.5 12.6 22.9329 12.6 21C12.5976 19.0678 11.0322 17.5024 9.09998 17.5ZM9.09998 23.1C7.94026 23.1 6.99998 22.1597 6.99998 21C6.99998 19.8403 7.94026 18.9 9.09998 18.9C10.2597 18.9 11.2 19.8403 11.2 21C11.2 22.1597 10.2597 23.1 9.09998 23.1Z" fill="#0FA9FF"/>
<path d="M23.1 9.79993C25.0328 9.79993 26.6 8.23279 26.6 6.29993C26.6 4.36707 25.0328 2.79993 23.1 2.79993C21.1671 2.79993 19.6 4.36707 19.6 6.29993C19.6024 8.2321 21.1678 9.79753 23.1 9.79993ZM23.1 4.19993C24.2597 4.19993 25.2 5.14021 25.2 6.29993C25.2 7.45964 24.2597 8.39993 23.1 8.39993C21.9403 8.39993 21 7.45964 21 6.29993C21 5.14021 21.9403 4.19993 23.1 4.19993Z" fill="#0FA9FF"/>
<path d="M39.9 21.2967V18.9C39.8945 17.1411 38.582 15.6608 36.8368 15.4441L29.3621 6.97847C29.3867 6.75288 29.3993 6.52661 29.4 6.3C29.4 2.82051 26.5795 0 23.1 0C19.6205 0 16.8 2.82051 16.8 6.3C16.8 6.41143 16.8113 6.51978 16.8167 6.62915L8.72676 14.7188C6.18926 14.8634 3.98877 16.5225 3.15103 18.9222C2.31328 21.322 3.00371 23.99 4.9 25.6823V36.4H0.7C0.313428 36.4 0 36.7134 0 37.1V41.3C0 41.6866 0.313428 42 0.7 42H27.3C27.6866 42 28 41.6866 28 41.3V37.1C28 36.7134 27.6866 36.4 27.3 36.4H13.3V25.6823C14.9068 24.2679 15.6687 22.1235 15.3146 20.0122L22.7432 12.5819C22.8621 12.5887 22.9797 12.6 23.1 12.6C23.4562 12.5979 23.8113 12.5655 24.162 12.5033L32.9 19.3901V21.298C31.6265 21.8542 30.8024 23.1106 30.8 24.5V31.5C30.7986 31.7434 30.9237 31.9696 31.1302 32.0981C31.337 32.2267 31.5954 32.2386 31.8127 32.1299L34.6127 30.7299C34.8513 30.611 35.0014 30.3666 35 30.1V25.2H37.8V30.1C37.7986 30.3666 37.9487 30.611 38.1873 30.7299L40.9873 32.1299C41.2046 32.2386 41.463 32.2267 41.6698 32.0981C41.8763 31.9696 42.0014 31.7434 42 31.5V24.5C41.9983 23.1099 41.1739 21.8528 39.9 21.2967ZM23.1 1.4C25.8063 1.4 28 3.59365 28 6.3C28 9.00635 25.8063 11.2 23.1 11.2C20.3937 11.2 18.2 9.00635 18.2 6.3C18.2031 3.59502 20.395 1.40308 23.1 1.4ZM26.6 40.6H1.4V37.8H26.6V40.6ZM11.9 36.4H6.3V26.6349C8.06162 27.5211 10.1384 27.5211 11.9 26.6349V36.4ZM9.1 25.9C6.39365 25.9 4.2 23.7063 4.2 21C4.2 18.2937 6.39365 16.1 9.1 16.1C11.8063 16.1 14 18.2937 14 21C13.9969 23.705 11.805 25.8969 9.1 25.9ZM14.8688 18.4799C14.0721 16.6701 12.4739 15.3375 10.5502 14.8784L17.1305 8.29849C17.7587 10.164 19.2199 11.6303 21.0834 12.2647L14.8688 18.4799ZM28.9499 8.62627L35.1449 15.643C34.1855 16.0163 33.439 16.7932 33.1044 17.7666L25.7783 11.9937C27.2224 11.3118 28.3555 10.1086 28.9499 8.62627ZM34.3 18.9C34.3 17.7403 35.2403 16.8 36.4 16.8C37.5597 16.8 38.5 17.7403 38.5 18.9V21H34.3V18.9ZM40.6 30.3673L39.2 29.6673V24.5C39.2 24.1134 38.8866 23.8 38.5 23.8H34.3C33.9134 23.8 33.6 24.1134 33.6 24.5V29.6673L32.2 30.3673V24.5C32.2 23.3403 33.1403 22.4 34.3 22.4H38.5C39.6597 22.4 40.6 23.3403 40.6 24.5V30.3673Z" fill="#0FA9FF"/>
</svg>
