<svg width="39" height="39" viewBox="0 0 39 39" fill="none" xmlns="http://www.w3.org/2000/svg">
<path d="M38.35 33.8C38.709 33.8 39 33.509 39 33.15V30.55C39 30.191 38.709 29.9 38.35 29.9H34.45V16.25C34.45 15.891 34.159 15.6 33.8 15.6H30.55V7.15C30.55 6.79104 30.259 6.5 29.9 6.5H24.05V0.65C24.05 0.29104 23.759 0 23.4 0H15.6C15.241 0 14.95 0.29104 14.95 0.65V6.5H9.1C8.74104 6.5 8.45 6.79104 8.45 7.15V15.6H5.2C4.84104 15.6 4.55 15.891 4.55 16.25V29.9H0.65C0.29104 29.9 0 30.191 0 30.55V33.15C0 33.509 0.29104 33.8 0.65 33.8H1.3V35.1H0.65C0.29104 35.1 0 35.391 0 35.75V38.35C0 38.709 0.29104 39 0.65 39H38.35C38.709 39 39 38.709 39 38.35V35.75C39 35.391 38.709 35.1 38.35 35.1H37.7V33.8H38.35ZM33.15 29.9H20.15V16.9H24.05V21.45C24.05 21.809 24.341 22.1 24.7 22.1H28.6C28.959 22.1 29.25 21.809 29.25 21.45V16.9H33.15V29.9ZM25.35 16.9H27.95V20.8H25.35V16.9ZM29.25 15.6H20.15V7.8H22.75V11.05C22.75 11.409 23.041 11.7 23.4 11.7H26C26.359 11.7 26.65 11.409 26.65 11.05V7.8H29.25V15.6ZM24.05 7.8H25.35V10.4H24.05V7.8ZM18.85 1.3H20.15V2.6H18.85V1.3ZM16.25 1.3H17.55V3.25C17.55 3.60896 17.841 3.9 18.2 3.9H20.8C21.159 3.9 21.45 3.60896 21.45 3.25V1.3H22.75V6.5H16.25V1.3ZM13.65 7.8H14.95V10.4H13.65V7.8ZM9.75 7.8H12.35V11.05C12.35 11.409 12.641 11.7 13 11.7H15.6C15.959 11.7 16.25 11.409 16.25 11.05V7.8H18.85V15.6H9.75V7.8ZM11.05 16.9H13.65V20.8H11.05V16.9ZM5.85 16.9H9.75V21.45C9.75 21.809 10.041 22.1 10.4 22.1H14.3C14.659 22.1 14.95 21.809 14.95 21.45V16.9H18.85V29.9H5.85V16.9ZM1.3 31.2H37.7V32.5H1.3V31.2ZM5.2 35.1V33.8H33.8V35.1H5.2ZM2.6 33.8H3.9V35.1H2.6V33.8ZM37.7 37.7H1.3V36.4H37.7V37.7ZM36.4 35.1H35.1V33.8H36.4V35.1Z" fill="#0FA9FF"/>
</svg>
